# xmcd CD database file
#
# Track frame offsets:
#	150
#	23818
#	51380
#	81948
#	108495
#	114565
#	144580
#	178920
#	205555
#	241245
#	264888
#	296595
#
# Disc length: 4336 seconds
#
# Revision: 6
# Processed by: cddbd v1.5.2PL0 Copyright (c) Steve Scherf et al.
# Submitted via: CDex 1.40Release
#
DISCID=a910ee0c
DTITLE=Natacha Atlas - Diaspora
DYEAR=1995
DGENRE=Electronic
TTITLE0=Iskanderia
TTITLE1=Leysh Nat'arak
TTITLE2=Diaspora
TTITLE3=Yalla Chant
TTITLE4=Alhambra Pt. 1
TTITLE5=Duden
TTITLE6=Feres
TTITLE7=Fun Does Not Exist
TTITLE8=Dub Yalil
TTITLE9=Iskanderia [Atlas Zamalek]
TTITLE10=Diaspora [Ballon Theatre Remix]
TTITLE11=Fun Does Not Exist [Dolmus Remix]
EXTD=YEAR: 1995 ID3G: 52
EXTT0=
EXTT1=
EXTT2=
EXTT3=
EXTT4=
EXTT5=
EXTT6=
EXTT7=
EXTT8=
EXTT9=
EXTT10=
EXTT11=
PLAYORDER=
